<svg width="54" height="54" viewBox="0 0 54 54" fill="none" xmlns="http://www.w3.org/2000/svg">
<g clip-path="url(#clip0)">
<path d="M31.2964 53.6045C46.0187 51.2358 56.0333 37.3808 53.6646 22.6584C51.2959 7.93605 37.441 -2.07856 22.7186 0.290118C7.99624 2.6588 -2.01841 16.5138 0.350276 31.2362C2.71896 45.9585 16.574 55.9731 31.2964 53.6045Z" fill="#4D99FF"/>
<path d="M25.1004 41.6398L22.7448 27L20.212 27.4053L19.5028 23.0488L22.0356 22.6435V21.909C21.7978 20.7462 21.7987 19.5472 22.0381 18.3847C22.2776 17.2222 22.7507 16.1205 23.4287 15.1464C24.6742 13.6479 26.4368 12.6717 28.3677 12.4109C29.4346 12.2598 30.5176 12.2598 31.5845 12.4109L32.091 16.9953C31.4446 16.897 30.7871 16.897 30.1407 16.9953C28.1905 17.2993 27.6079 18.9456 27.9372 20.8199L28.0891 21.7824L31.8884 21.1745L32.5976 25.531L28.8237 26.1388L31.1792 40.7786L25.1004 41.6398Z" fill="white"/>
</g>
<defs>
<clipPath id="clip0">
<rect width="54" height="54" fill="white"/>
</clipPath>
</defs>
</svg>
