<svg width="75" height="75" viewBox="0 0 75 75" fill="none" xmlns="http://www.w3.org/2000/svg">
<path d="M68.9336 18.6768V19.1768H69.4336H72.0703C73.4122 19.1768 74.5 20.2645 74.5 21.6064C74.5 22.9484 73.4122 24.0361 72.0703 24.0361H69.4336H68.9336V24.5361V27.1729C68.9336 28.5148 67.8458 29.6025 66.5039 29.6025C65.162 29.6025 64.0742 28.5148 64.0742 27.1729V24.5361V24.0361H63.5742H60.9375C59.5956 24.0361 58.5078 22.9484 58.5078 21.6064C58.5078 20.2645 59.5956 19.1768 60.9375 19.1768H63.5742H64.0742V18.6768V16.04C64.0742 14.6981 65.162 13.6104 66.5039 13.6104C67.8458 13.6104 68.9336 14.6981 68.9336 16.04V18.6768Z" fill="#F16845" stroke="#100122"/>
<path d="M45.8968 36.1128L45.1674 36.6763L46.0375 36.9804C59.0676 41.5348 68.9336 54.0424 68.9336 69.2871C68.9336 70.629 67.8458 71.7168 66.5039 71.7168H2.92969C1.58776 71.7168 0.5 70.629 0.5 69.2871C0.5 54.0461 10.3586 41.5374 23.3961 36.9804L24.2662 36.6763L23.5368 36.1128C19.1939 32.7577 16.3936 27.5029 16.3936 21.6064C16.3936 11.5034 24.6138 3.2832 34.7168 3.2832C44.8198 3.2832 53.04 11.5034 53.04 21.6064C53.04 27.503 50.2397 32.7577 45.8968 36.1128ZM5.50958 66.307L5.45384 66.8574H6.00703H63.4266H63.9798L63.924 66.307C62.4258 51.513 49.8996 39.9297 34.7168 39.9297C19.534 39.9297 7.00775 51.513 5.50958 66.307ZM34.7168 8.14258C27.2924 8.14258 21.2529 14.182 21.2529 21.6064C21.2529 29.0309 27.2924 35.0703 34.7168 35.0703C42.1412 35.0703 48.1807 29.0309 48.1807 21.6064C48.1807 14.182 42.1412 8.14258 34.7168 8.14258Z" fill="#F16845" stroke="#100122"/>
</svg>
