<svg width="94" height="94" viewBox="0 0 94 94" fill="none" xmlns="http://www.w3.org/2000/svg">
<g clip-path="url(#clip0)">
<path d="M28.9463 75.0945C44.6711 84.8596 65.3348 80.0283 75.0999 64.3035C84.865 48.5786 80.0337 27.9149 64.3088 18.1498C48.584 8.38469 27.9204 13.2161 18.1553 28.9409C8.39015 44.6658 13.2214 65.3294 28.9463 75.0945Z" fill="#946EFF"/>
<path d="M46.5594 67.3193L27.457 55.4736C25.7755 54.424 24.5791 52.7501 24.1305 50.8194C23.6818 48.8887 24.0175 46.8588 25.064 45.1754L36.9097 26.073C37.9593 24.3915 39.6331 23.1952 41.5638 22.7466C43.4945 22.2979 45.5243 22.6336 47.2078 23.68L66.3102 35.5257C67.9917 36.5753 69.188 38.2491 69.6367 40.1798C70.0853 42.1105 69.7496 44.1404 68.7032 45.8238L56.8575 64.9262C55.808 66.6077 54.1341 67.8041 52.2034 68.2528C50.2727 68.7014 48.2428 68.3657 46.5594 67.3193ZM45.4125 26.6052C44.9708 26.3289 44.4789 26.1424 43.9651 26.0565C43.4512 25.9705 42.9255 25.9868 42.4179 26.1043C41.9103 26.2218 41.431 26.4383 41.0072 26.7414C40.5834 27.0444 40.2235 27.4281 39.9482 27.8704L28.1025 46.9727C27.8262 47.4144 27.6397 47.9062 27.5538 48.4201C27.4678 48.9339 27.4841 49.4597 27.6016 49.9673C27.7191 50.4748 27.9356 50.9543 28.2387 51.3781C28.5417 51.8019 28.9253 52.1617 29.3676 52.437L48.4701 64.2827C48.9117 64.559 49.4036 64.7455 49.9174 64.8314C50.4313 64.9174 50.957 64.9011 51.4646 64.7836C51.9721 64.6661 52.4516 64.4496 52.8754 64.1466C53.2991 63.8435 53.659 63.4598 53.9343 63.0175L65.78 43.9152C66.0563 43.4735 66.2428 42.9817 66.3287 42.4678C66.4147 41.954 66.3984 41.4282 66.2809 40.9206C66.1634 40.4131 65.9469 39.9336 65.6438 39.5098C65.3408 39.0861 64.9572 38.7262 64.5148 38.4509L45.4125 26.6052Z" fill="white"/>
<path d="M42.249 52.9409C40.7767 52.0249 39.609 50.6931 38.8933 49.1137C38.1776 47.5343 37.946 45.7782 38.2278 44.0673C38.5097 42.3564 39.2923 40.7674 40.4767 39.501C41.6612 38.2346 43.1943 37.3476 44.8826 36.9522C46.5709 36.5567 48.3386 36.6706 49.9623 37.2792C51.5859 37.8879 52.9927 38.9641 54.005 40.3719C55.0173 41.7797 55.5897 43.456 55.6498 45.1889C55.7099 46.9218 55.2551 48.6338 54.3428 50.1083C53.7357 51.0895 52.941 51.9413 52.0042 52.6149C51.0675 53.2885 50.007 53.7707 48.8836 54.0338C47.7602 54.2969 46.5959 54.3358 45.4575 54.1483C44.319 53.9608 43.2286 53.5505 42.249 52.9409ZM49.661 41.0174C48.7797 40.4691 47.7556 40.1945 46.7182 40.228C45.6808 40.2615 44.6766 40.6018 43.8325 41.2058C42.9884 41.8098 42.3422 42.6505 41.9756 43.6216C41.6091 44.5926 41.5385 45.6505 41.773 46.6617C42.0074 47.6728 42.5362 48.5918 43.2927 49.3025C44.0491 50.0132 44.9993 50.4838 46.023 50.6548C47.0468 50.8257 48.0983 50.6894 49.0446 50.263C49.991 49.8367 50.7897 49.1394 51.3399 48.2592C51.706 47.6737 51.953 47.0218 52.0667 46.3407C52.1805 45.6596 52.1587 44.9627 52.0028 44.29C51.8468 43.6173 51.5597 42.982 51.1579 42.4204C50.756 41.8589 50.2474 41.3821 49.661 41.0174Z" fill="white"/>
<path d="M62.2482 39.9028C62.6703 40.1655 63.005 40.5474 63.2102 41.0003C63.4153 41.4532 63.4817 41.9568 63.4008 42.4474C63.3199 42.938 63.0954 43.3936 62.7557 43.7566C62.416 44.1197 61.9763 44.3739 61.4922 44.4872C61.0081 44.6005 60.5012 44.5679 60.0357 44.3932C59.5702 44.2186 59.1669 43.9099 58.8767 43.5062C58.5865 43.1025 58.4224 42.6218 58.4053 42.1249C58.3881 41.628 58.5186 41.1372 58.7803 40.7144C58.9544 40.4331 59.1824 40.1889 59.451 39.9958C59.7196 39.8027 60.0237 39.6645 60.3458 39.5891C60.668 39.5137 61.0018 39.5026 61.3282 39.5564C61.6546 39.6103 61.9673 39.728 62.2482 39.9028Z" fill="white"/>
</g>
<defs>
<clipPath id="clip0">
<rect width="67" height="67" fill="white" transform="translate(38.1323) rotate(34.6902)"/>
</clipPath>
</defs>
</svg>
