<svg width="85" height="85" viewBox="0 0 85 85" fill="none" xmlns="http://www.w3.org/2000/svg">
<path d="M28.9358 34.6562C28.9358 33.4981 27.9883 32.5505 26.8301 32.5505H9.94945C8.79131 32.5505 7.84375 33.4981 7.84375 34.6562C7.84375 35.8144 8.79131 36.7619 9.94945 36.7619H26.8301C27.9883 36.7619 28.9358 35.8144 28.9358 34.6562Z" fill="#F16845"/>
<path d="M75.0506 32.5505H58.1699C57.0118 32.5505 56.0642 33.4981 56.0642 34.6562C56.0642 35.8144 57.0118 36.7619 58.1699 36.7619H75.0506C76.2087 36.7619 77.1563 35.8144 77.1563 34.6562C77.1563 33.4981 76.2263 32.5505 75.0506 32.5505Z" fill="#F16845"/>
<path d="M42.5 21.0921C43.6581 21.0921 44.6057 20.1445 44.6057 18.9864V2.1057C44.6057 0.947564 43.6581 0 42.5 0C41.3418 0 40.3943 0.947564 40.3943 2.1057V18.9864C40.3943 20.1445 41.3418 21.0921 42.5 21.0921Z" fill="#F16845"/>
<path d="M53.5725 25.6895C54.1165 25.6895 54.6429 25.479 55.064 25.0754L67.0139 13.1255C67.8386 12.3008 67.8386 10.9672 67.0139 10.1425C66.1891 9.31774 64.8555 9.31774 64.0308 10.1425L52.081 22.0923C51.2562 22.917 51.2562 24.2506 52.081 25.0754C52.5021 25.479 53.0461 25.6895 53.5725 25.6895Z" fill="#F16845"/>
<path d="M29.9361 25.0754C30.3397 25.479 30.8836 25.6895 31.4276 25.6895C31.9716 25.6895 32.498 25.479 32.9191 25.0754C33.7439 24.2506 33.7439 22.917 32.9191 22.0923L20.9693 10.1425C20.1446 9.31774 18.811 9.31774 17.9862 10.1425C17.1615 10.9672 17.1615 12.3008 17.9862 13.1255L29.9361 25.0754Z" fill="#F16845"/>
<path d="M67.8034 47.9397C66.2066 46.571 64.1886 45.8165 62.1356 45.8165H60.2229H53.3443H50.0805V37.3059C50.0805 33.2349 48.8697 30.2694 46.4657 28.4971C42.6754 25.7246 37.534 27.2863 37.3059 27.3565C36.4285 27.6373 35.8319 28.4445 35.8319 29.3569V39.6222C35.8319 42.7457 34.3404 45.3953 31.3749 47.5186C29.1288 49.1329 26.8301 49.8699 26.5317 49.9577L26.3212 50.0103C25.5315 49.1154 24.3734 48.5539 23.0749 48.5539H15.0732C12.6868 48.5539 10.739 50.5016 10.739 52.8881V79.1391C10.739 81.5256 12.6868 83.4734 15.0732 83.4734H23.11C24.1628 83.4734 25.1455 83.0873 25.8825 82.4556C27.4969 84.0349 29.6903 85 32.0592 85H40.0433H40.868H57.2047C59.7316 85 61.9601 84.3858 63.6622 83.2453C65.8381 81.7713 67.1893 79.4375 67.5753 76.4544L70.8216 56.2748C71.3305 53.1513 70.1723 49.9577 67.8034 47.9397ZM23.2328 79.1391C23.2328 79.2093 23.1802 79.262 23.11 79.262H15.0732C15.0031 79.262 14.9504 79.2093 14.9504 79.1391V52.8881C14.9504 52.8179 15.0031 52.7653 15.0732 52.7653H23.11C23.1802 52.7653 23.2328 52.8179 23.2328 52.8881V79.1391ZM66.6628 55.6255L63.4165 75.8402C63.4165 75.8578 63.4165 75.8929 63.399 75.928C63.2586 77.1387 62.8024 80.8062 57.2047 80.8062H40.868H40.0433H32.0592C29.8131 80.8062 27.8478 79.1216 27.4969 76.8931C27.4793 76.8053 27.4618 76.7176 27.4442 76.6474V54.0813L27.567 54.0462C27.6021 54.0462 27.6197 54.0287 27.6548 54.0287C27.7776 53.9936 30.7607 53.1513 33.7262 51.0281C37.8499 48.0976 40.0433 44.1495 40.0433 39.6222V31.0941C41.2014 30.9713 42.7983 31.0239 43.9739 31.8838C45.2374 32.8138 45.8691 34.6387 45.8691 37.2884V47.9046C45.8691 49.0628 46.8166 50.0103 47.9748 50.0103H53.3443H60.2229H62.1356C63.1884 50.0103 64.2237 50.4139 65.066 51.1158C66.3294 52.2038 66.926 53.9234 66.6628 55.6255Z" fill="#F16845"/>
</svg>
