<svg width="78" height="77" viewBox="0 0 78 77" fill="none" xmlns="http://www.w3.org/2000/svg">
<g clip-path="url(#clip0)">
<path d="M46.1188 3.62577L7.8192 21.3856C6.79237 21.8617 5.87115 22.5393 5.10812 23.3796C4.3451 24.2198 3.75523 25.2062 3.37217 26.2827C2.98912 27.3591 2.82039 28.5044 2.87562 29.6531C2.93085 30.8019 3.20893 31.9316 3.69404 32.9777L16.3837 60.3434C16.8688 61.3896 17.5515 62.3317 18.3926 63.116C19.2337 63.9003 20.2169 64.5114 21.286 64.9144C22.3551 65.3175 23.4892 65.5046 24.6235 65.465C25.7578 65.4255 26.8701 65.1601 27.897 64.6839L41.3271 58.4563L50.8776 64.0653L52.5854 53.2357L66.1966 46.9241C68.2703 45.9625 69.87 44.2009 70.6436 42.027C71.4172 39.853 71.3013 37.4448 70.3216 35.332L57.6319 7.96632C56.6522 5.85352 54.8889 4.2092 52.7297 3.3952C50.5706 2.58121 48.1926 2.66415 46.1188 3.62577Z" fill="#FF572F"/>
<path d="M44.1385 20.3177C43.0676 19.9119 41.9312 19.7229 40.7944 19.7615C39.6575 19.8002 38.5425 20.0658 37.5134 20.543C36.4843 21.0202 35.5613 21.6996 34.7973 22.5424C34.0333 23.3852 33.4433 24.3748 33.0613 25.4543L32.7415 25.3338C31.6707 24.9279 30.5343 24.7389 29.3974 24.7775C28.2605 24.8162 27.1455 25.0817 26.1164 25.5589C25.0873 26.0361 24.1642 26.7157 23.4002 27.5585C22.6362 28.4013 22.0464 29.3908 21.6643 30.4703C21.2785 31.5484 21.108 32.696 21.1623 33.8473C21.2167 34.9986 21.4949 36.1311 21.9811 37.1796C22.4673 38.228 23.1519 39.1719 23.9956 39.9573C24.8392 40.7426 25.8254 41.3538 26.8975 41.7559L43.4744 48.0054L49.3184 31.5832C50.0943 29.4151 49.9846 27.0118 49.0136 24.9001C48.0427 22.7884 46.2895 21.1405 44.1385 20.3177Z" fill="white"/>
</g>
<defs>
<clipPath id="clip0">
<rect width="59.4548" height="56.7926" fill="white" transform="translate(0 25.0114) rotate(-24.8775)"/>
</clipPath>
</defs>
</svg>
