<svg width="62" height="62" viewBox="0 0 62 62" fill="none" xmlns="http://www.w3.org/2000/svg">
<path d="M30.7754 33.4073C30.8396 33.4073 30.9038 33.4073 30.9808 33.4073C31.0065 33.4073 31.0322 33.4073 31.0578 33.4073C31.0964 33.4073 31.1477 33.4073 31.1862 33.4073C34.9481 33.3431 37.991 32.0207 40.2378 29.4914C45.1809 23.9192 44.3591 14.367 44.2693 13.4554C43.9483 6.61214 40.7128 3.33817 38.0423 1.81031C36.0522 0.667633 33.7284 0.0513564 31.1349 0H31.045C31.0322 0 31.0065 0 30.9936 0H30.9166C29.4915 0 26.6925 0.231104 24.0092 1.75896C21.313 3.28681 18.0261 6.56078 17.7052 13.4554C17.6153 14.367 16.7936 23.9192 21.7366 29.4914C23.9707 32.0207 27.0135 33.3431 30.7754 33.4073ZM21.1233 13.877C21.1294 13.8082 21.146 13.7426 21.146 13.6736C21.5697 4.46801 28.1048 3.4794 30.9038 3.4794H30.9551C30.9808 3.4794 31.0193 3.4794 31.0578 3.4794C34.5244 3.55643 40.4175 4.96873 40.8156 13.6736C40.8156 13.7428 40.8322 13.8086 40.8385 13.8774C40.929 14.8691 41.5022 22.8645 37.6571 27.1932C36.0394 29.0164 33.8824 29.9151 31.045 29.9408C31.0193 29.9408 31.0065 29.9408 30.9808 29.9408C30.9551 29.9408 30.9423 29.9408 30.9166 29.9408C28.092 29.9151 25.9222 29.0164 24.3173 27.1932C20.486 22.8905 21.035 14.8673 21.1233 13.877Z" fill="#F16845"/>
<path d="M57.3651 49.2508C57.3651 49.2379 57.3651 49.2251 57.3651 49.2123C57.3651 49.1096 57.3523 49.0068 57.3523 48.8913C57.2753 46.3491 57.1084 40.4046 51.5362 38.5045C51.4977 38.4916 51.4463 38.4788 51.4078 38.4659C45.6174 36.9894 40.8027 33.6513 40.7513 33.6128C39.9682 33.0607 38.8897 33.2533 38.3376 34.0364C37.7855 34.8196 37.9781 35.8981 38.7613 36.4502C38.9795 36.6043 44.0895 40.1607 50.4834 41.8041C53.4749 42.8698 53.8087 46.0667 53.8986 48.994C53.8986 49.1096 53.8986 49.2123 53.9114 49.315C53.9395 51.8437 52.3923 54.0365 50.0513 54.9928C46.1437 56.5891 39.5937 58.5463 31.0065 58.5463C22.4428 58.5463 15.8727 56.5774 11.951 54.9761C9.61019 54.0204 8.03251 51.8299 8.08868 49.3021C8.08868 49.1994 8.10152 49.0967 8.10152 48.9812C8.19139 46.0538 8.52521 42.8569 11.5167 41.7913C17.9106 40.1479 23.0205 36.5786 23.2388 36.4374C24.022 35.8853 24.2146 34.8068 23.6625 34.0236C23.1104 33.2404 22.0319 33.0478 21.2488 33.5999C21.1974 33.6384 16.4084 36.9766 10.5923 38.4531C10.5409 38.4659 10.5024 38.4788 10.4639 38.4916C4.89175 40.4046 4.72484 46.3491 4.6478 48.8785C4.6478 48.994 4.6478 49.0967 4.63496 49.1994C4.63496 49.2123 4.63496 49.2251 4.63496 49.2379C4.62212 49.9056 4.60929 53.3336 5.28976 55.0541C5.41815 55.3879 5.64925 55.6703 5.95739 55.8629C6.34256 56.1197 15.5739 62 31.0193 62C46.4647 62 55.696 56.1069 56.0812 55.8629C56.3765 55.6703 56.6205 55.3879 56.7489 55.0541C57.3908 53.3465 57.378 49.9184 57.3651 49.2508Z" fill="#F16845"/>
</svg>
